<svg width="19" height="19" viewBox="0 0 19 19" fill="none" xmlns="http://www.w3.org/2000/svg">
<path d="M9.12507 6.84668C9.02521 6.84676 8.92633 6.8665 8.8341 6.90478C8.74187 6.94307 8.65808 6.99915 8.58752 7.06981C8.51697 7.14048 8.461 7.22435 8.42285 7.31664C8.38471 7.40893 8.36516 7.50783 8.36523 7.60769V16.7303C8.36523 16.932 8.44535 17.1254 8.58796 17.268C8.73056 17.4106 8.92397 17.4907 9.12565 17.4907C9.32732 17.4907 9.52073 17.4106 9.66334 17.268C9.80594 17.1254 9.88606 16.932 9.88606 16.7303V7.60769C9.88606 7.40585 9.80591 7.21228 9.6632 7.06956C9.52048 6.92685 9.3269 6.84668 9.12507 6.84668Z" fill="#1CB0F6"/>
<path d="M16.5849 6.42048L11.7706 11.2367C11.76 11.2449 11.6988 11.2996 11.6887 11.309C11.5995 11.3965 11.5285 11.5009 11.48 11.6161C11.4315 11.7313 11.4065 11.855 11.4062 11.98C11.4065 12.2196 11.4961 12.4505 11.6576 12.6274L16.5938 17.9439C16.7231 18.0856 16.8923 18.1851 17.0791 18.2291C17.2659 18.2731 17.4617 18.2597 17.6407 18.1906C17.8198 18.1216 17.9738 18 18.0826 17.842C18.1915 17.6839 18.25 17.4966 18.2506 17.3047V7.03612C18.2512 6.84245 18.1923 6.65326 18.0819 6.49416C17.9715 6.33505 17.8148 6.21371 17.6332 6.14655C17.4515 6.07939 17.2536 6.06964 17.0662 6.11864C16.8789 6.16763 16.7111 6.27299 16.5856 6.42048H16.5849Z" fill="#1CB0F6"/>
<path d="M1.69506 6.45046C1.68505 6.43986 1.63029 6.37572 1.61969 6.36631C1.48756 6.23253 1.31859 6.14114 1.13431 6.1038C0.950021 6.06647 0.758827 6.08488 0.585047 6.15668C0.411266 6.22848 0.262765 6.35041 0.158572 6.50693C0.0543788 6.66345 -0.000809906 6.84747 8.98249e-06 7.03549V17.3029C0.000287613 17.4939 0.0580189 17.6803 0.165685 17.8381C0.27335 17.9958 0.425981 18.1175 0.603727 18.1873C0.781472 18.2571 0.976091 18.2719 1.16233 18.2296C1.34856 18.1873 1.51781 18.09 1.648 17.9503L6.59894 12.6186C6.75607 12.4434 6.84282 12.2164 6.84257 11.9811C6.84025 11.8451 6.80932 11.7111 6.75183 11.5878C6.69434 11.4645 6.61156 11.3547 6.50885 11.2655L1.69506 6.45046Z" fill="#1CB0F6"/>
<path d="M15.2096 4.75416V0.571262C15.2098 0.458325 15.1765 0.347884 15.1138 0.253921C15.0512 0.159957 14.962 0.0867118 14.8577 0.0434672C14.7534 0.000222526 14.6386 -0.0110742 14.5278 0.011011C14.417 0.0330961 14.3154 0.0875731 14.2356 0.167526L12.8419 1.56181C12.0936 0.971051 11.2363 0.53351 10.3189 0.274181C9.40145 0.0148515 8.44187 -0.0611902 7.49506 0.0504182C6.54824 0.162027 5.63268 0.459089 4.80071 0.924634C3.96873 1.39018 3.23667 2.01508 2.64628 2.76364C2.58371 2.84148 2.53707 2.93087 2.50905 3.02672C2.48103 3.12257 2.47218 3.223 2.48297 3.32228C2.49377 3.42156 2.52403 3.51774 2.57199 3.60533C2.61995 3.69292 2.68469 3.77019 2.76252 3.83276C2.84036 3.89533 2.92977 3.94196 3.02562 3.96998C3.12147 3.998 3.22185 4.00686 3.32112 3.99606C3.4204 3.98527 3.5166 3.95503 3.60419 3.90707C3.69178 3.8591 3.76909 3.79436 3.83166 3.71653C4.75414 2.5422 6.09782 1.77345 7.57768 1.57336C9.05754 1.37327 10.5571 1.75758 11.7584 2.64476L10.0515 4.35157C9.97158 4.43134 9.91707 4.53305 9.89498 4.6438C9.8729 4.75456 9.88421 4.86937 9.92746 4.9737C9.9707 5.07803 10.0439 5.16718 10.1379 5.22983C10.2319 5.29248 10.3423 5.32583 10.4552 5.32564H14.6381C14.7893 5.32533 14.9342 5.26514 15.0411 5.15825C15.1479 5.05137 15.2081 4.90649 15.2085 4.75533L15.2096 4.75416Z" fill="#1CB0F6"/>
</svg>
